<?xml version="1.0" encoding="utf-8"?>
<!-- Generator: Adobe Illustrator 19.1.0, SVG Export Plug-In . SVG Version: 6.00 Build 0)  -->
<!DOCTYPE svg PUBLIC "-//W3C//DTD SVG 1.1//EN" "http://www.w3.org/Graphics/SVG/1.1/DTD/svg11.dtd">
<svg version="1.1" id="Layer_1" xmlns="http://www.w3.org/2000/svg" xmlns:xlink="http://www.w3.org/1999/xlink" x="0px" y="0px"
	 width="42px" height="42px" viewBox="-458 260 42 42" style="enable-background:new -458 260 42 42;" xml:space="preserve">
<style type="text/css">
	.st0{fill:#FFFFFF;}
</style>
<path class="st0" d="M-416.2,281c0-15.2-16.5-25.5-30.1-18.7c-13.5,6.7-15.5,25.7-3.7,35.1c7,5.6,17.1,6,24.6,1
	c0.6-0.3,1-0.6,1.5-1.1C-419.3,293.4-416.2,287.6-416.2,281z M-419.6,281c0,4.1-1.4,7.9-3.9,10.9c-1.1-1.6-3.2-2-5.1-1.9h-2.1
	c-0.7,0-5.1-0.3-3-2l0.1,0.1c2.6,1.1,6.4,0.9,8.3-1.5c1.8-2.3,0.9-5.6-1.8-6.6c-0.1-0.5,0.5-1.7,0.9-0.9l0.3,0.5
	c1.2,1.9,3.8-0.7,2.2-2.5c-1.2-1.4-3.9-1.3-5.2-0.1v-0.8c0-0.5-0.3-2,0.6-2h0.6c1.5,0,1.4-2.5,0.4-3.1c-1.1-0.6-2.9,0.1-4.1,0
	c-1.1-0.1-2.9-0.7-3.8,0.2c-1,1-0.3,2.7,1.1,2.5h0.2c1.3,0,1.1,1.7,0.4,2.3c-1,0.9-2.5,0.7-3.4-0.1c-1.8-1.6-1.6-5.3-0.8-7.4
	c0.8-2.1,3.9-3.2,5-0.7c0.5,1.2,0.5,2.4,2.2,2.3c1.4-0.1,1.7-1.1,1.6-2.3c-0.2-0.7,0-1.6,0.1-2.3
	C-423.3,268.6-419.6,274.4-419.6,281z M-434,294.5c0-0.5,0.4-1,1.3-1.3c0.7,0.1,1.2,0.1,1.7,0.1h0.8c0.8,0,2.2-0.2,2.8,0.6
	c0.5,0.7,0.1,1.4-0.6,1.8C-429.3,296.3-434,296.6-434,294.5z M-430.5,282c2.4,0,2.4,3.8,0,3.8S-432.9,282-430.5,282z M-437.9,263.5
	c-3.7,1.2-4.8,5.2-4.7,8.7c-3.2,0.2-6.5,0.2-9.7,0C-449.3,267.2-444,263.8-437.9,263.5C-438,263.5-438,263.5-437.9,263.5z
	 M-453.4,285.5c-0.3-0.1-0.4-0.1-0.6-0.1c-0.8-3.2-0.8-6.7,0.3-9.9c1.3-0.2,1.5,0.2,1.5,1.5v6.9
	C-452.2,284.9-452.3,285.8-453.4,285.5C-453.7,285.5-453.2,285.6-453.4,285.5z M-452.7,288.8l1.2-0.1c0.5,0,1.2-0.1,2.1-0.1h2.2
	c2.4,0,4.9,0.4,7.3,0.2c2.3-0.2,1.2-3,1.4-4.7c0.1-1,0.3-2.4-0.6-3.1c-0.7-0.5-1.9-0.4-2.5,0.2c-0.9,0.9-0.2,2-0.4,3.1
	c-0.2,1.3-1.8,1.2-2.8,1.2h-1.4c-1,0-1.5-0.4-1.5-1.5v-1.9c0-0.6,0.5-1,1.1-0.8c0.6,0.2,0.6,0.6,0.6,1.2v0.1c0,1.1,1.2,1.7,2.1,1
	c1-0.8,0.3-3,0.3-4c0-0.9,0.6-2.7-0.1-3.5c-1-0.9-2.2,0-2.2,1.1v0.3c0,1-1.7,1.1-1.7,0v-1.4c0-0.5,0.1-0.8,0.4-1
	c0.2-0.1,0.5-0.1,1.1-0.1h2.4c2.3,0,1.1,1.3,1.4,2.9c0.3,1.6,2.4,2,3.3,0.7c2.2,1.3,5,1.2,7.1-0.4v0.1c0,0.2,0,0.4,0.1,0.5
	c-3.2,0.5-6.4,4.1-3.7,7.1c-1.4,0.6-2.4,1.5-2.3,3.2c0.1,1.3,1,2.1,2.3,2.4c-3.6,1.1-3.6,5-0.4,6.7
	C-443,298.9-449.6,295-452.7,288.8z"/>
</svg>
