<?xml version="1.0" encoding="utf-8"?>
<!-- Generator: Adobe Illustrator 19.1.0, SVG Export Plug-In . SVG Version: 6.00 Build 0)  -->
<!DOCTYPE svg PUBLIC "-//W3C//DTD SVG 1.1//EN" "http://www.w3.org/Graphics/SVG/1.1/DTD/svg11.dtd">
<svg version="1.1" id="Layer_1" xmlns="http://www.w3.org/2000/svg" xmlns:xlink="http://www.w3.org/1999/xlink" x="0px" y="0px"
	 width="15.1px" height="11.6px" viewBox="0 0 15.1 11.6" style="enable-background:new 0 0 15.1 11.6;" xml:space="preserve">
<path d="M15.1,2.3c0,0.3-0.1,0.5-0.3,0.7l-8.3,8.3c-0.2,0.2-0.4,0.3-0.7,0.3s-0.5-0.1-0.7-0.3L0.3,6.5C0.1,6.3,0,6.1,0,5.8
	s0.1-0.5,0.3-0.7l1.3-1.3C1.8,3.6,2,3.5,2.3,3.5S2.8,3.6,3,3.8l2.8,2.9l6.3-6.4C12.3,0.1,12.5,0,12.8,0s0.5,0.1,0.7,0.3l1.3,1.3
	C15,1.9,15.1,2.1,15.1,2.3z"/>
</svg>
